<svg width="45" height="45" viewBox="0 0 45 45" fill="none" xmlns="http://www.w3.org/2000/svg">
<circle cx="22.5" cy="22.5" r="22.5" fill="#F24E1E"/>
<path d="M20.354 7.1291C19.2279 6.91167 18.0648 6.96956 16.9669 7.2977C15.869 7.62583 14.8699 8.21414 14.0578 9.01084C13.1912 9.85867 12.5669 10.9157 12.2477 12.0757C11.9284 13.2357 11.9255 14.4578 12.2391 15.6193C12.553 15.353 12.9308 15.1695 13.3367 15.0861C13.7427 15.0027 14.1636 15.022 14.5598 15.1424C14.9561 15.2627 15.3147 15.4801 15.602 15.7741C15.8893 16.0681 16.0957 16.429 16.2021 16.823C16.5333 16.7759 16.8709 16.7963 17.1938 16.8829C17.5168 16.9694 17.8181 17.1204 18.0792 17.3262C18.3403 17.5321 18.5554 17.7885 18.7114 18.0796C18.8674 18.3706 18.9607 18.6901 18.9858 19.0181C19.5698 19.0578 20.1196 19.3034 20.5341 19.7098C20.9485 20.1161 21.1997 20.6559 21.2414 21.2297C21.7072 21.2619 22.1538 21.4251 22.5279 21.6998C22.902 21.9745 23.1878 22.3491 23.3513 22.779C23.5147 23.2089 23.5488 23.6759 23.4497 24.1244C23.3505 24.5728 23.1221 24.9838 22.7918 25.3082L22.3954 25.6962L23.5611 26.7788C23.7168 26.9237 23.9239 27.003 24.1382 26.9999C24.3525 26.9968 24.5571 26.9115 24.7084 26.7622C24.8485 26.6242 24.9335 26.4412 24.9478 26.2467C24.962 26.0522 24.9046 25.8592 24.786 25.7028L24.7219 25.6398L24.6426 25.5503L24.4722 25.3812C24.3934 25.3042 24.3308 25.2126 24.2882 25.1117C24.2455 25.0109 24.2235 24.9027 24.2235 24.7935C24.2235 24.6842 24.2455 24.5761 24.2882 24.4752C24.3308 24.3743 24.3934 24.2828 24.4722 24.2057C24.6302 24.0513 24.844 23.9647 25.0669 23.9647C25.2897 23.9647 25.5035 24.0513 25.6616 24.2057L25.8978 24.4378C25.9484 24.4876 25.9956 24.5384 26.0395 24.5904L26.166 24.7164C26.2398 24.7901 26.3278 24.8486 26.4248 24.8885C26.5218 24.9285 26.626 24.949 26.7312 24.949C26.8364 24.949 26.9405 24.9285 27.0376 24.8885C27.1346 24.8486 27.2226 24.7901 27.2964 24.7164C27.4465 24.5682 27.5307 24.3676 27.5307 24.1585C27.5307 23.9494 27.4465 23.7488 27.2964 23.6006L27.0433 23.3519C26.9624 23.2722 26.8988 23.1772 26.8564 23.0726C26.8141 22.968 26.7938 22.856 26.797 22.7434C26.7967 22.5797 26.8458 22.4195 26.938 22.2831C27.0303 22.1467 27.1615 22.0402 27.3153 21.9771C27.4691 21.9139 27.6384 21.897 27.802 21.9283C27.9656 21.9597 28.116 22.0379 28.2344 22.1532L28.425 22.3422C28.5072 22.4234 28.6048 22.4878 28.7124 22.5317C28.82 22.5757 28.9353 22.5983 29.0518 22.5983C29.1683 22.5983 29.2836 22.5757 29.3912 22.5317C29.4987 22.4878 29.5964 22.4234 29.6785 22.3422C29.8439 22.1777 29.9366 21.9558 29.9366 21.7246C29.9366 21.4934 29.8439 21.2715 29.6785 21.1071L29.6364 21.064L29.4828 20.923L28.1753 19.6332C28.0968 19.5562 28.0345 19.4647 27.9919 19.364C27.9494 19.2633 27.9275 19.1553 27.9275 19.0463C27.9275 18.9372 27.9494 18.8293 27.9919 18.7285C28.0345 18.6278 28.0968 18.5364 28.1753 18.4594C28.3335 18.3045 28.5476 18.2175 28.7709 18.2175C28.9942 18.2175 29.2083 18.3045 29.3664 18.4594L30.5946 19.6696L30.6773 19.7426L30.7785 19.8421C31.0399 20.0513 31.3711 20.1577 31.7078 20.1405C32.0444 20.1234 32.3626 19.9839 32.6006 19.7492C32.8564 19.4966 33 19.1548 33 18.7984C33 18.442 32.8564 18.1002 32.6006 17.8476L31.3555 16.6191L31.3066 16.5743L26.2588 11.5309H24.9665L22.0782 13.6895C20.6813 14.734 18.6871 14.4687 17.6226 13.096C17.3689 12.77 17.1832 12.3981 17.0761 12.0014C16.969 11.6048 16.9427 11.1912 16.9987 10.7846C17.0546 10.3779 17.1918 9.98612 17.4022 9.63166C17.6126 9.2772 17.8922 8.96707 18.2249 8.71905L20.354 7.1291ZM26.6131 9.87296C26.725 9.8732 26.8357 9.89531 26.9388 9.938C27.0419 9.9807 27.1354 10.0431 27.2137 10.1217L31.7621 14.6644C32.0862 14.0346 32.2771 13.3469 32.3235 12.6427C32.3698 11.9385 32.2706 11.2323 32.0318 10.5668C31.7929 9.90129 31.4194 9.29018 30.9338 8.77031C30.4482 8.25045 29.8605 7.83259 29.2062 7.54192L29.1471 7.51208C28.5983 7.21502 27.9819 7.05931 27.3554 7.05947H23.222L23.1394 7.1291L19.2473 10.0388C19.0909 10.1548 18.9594 10.3001 18.8604 10.4662C18.7615 10.6324 18.6969 10.8162 18.6706 11.007C18.6442 11.1978 18.6566 11.3919 18.7069 11.5779C18.7572 11.764 18.8446 11.9385 18.9638 12.0913C19.204 12.4009 19.5594 12.6041 19.952 12.6563C20.3446 12.7086 20.7422 12.6055 21.0575 12.3698L24.1719 10.0421C24.3184 9.93259 24.4973 9.8732 24.6814 9.87296H26.6131ZM19.34 21.9244L18.2316 23.0104C18.0906 23.1487 17.8994 23.2263 17.7002 23.2263C17.5009 23.2263 17.3098 23.1487 17.1688 23.0104C17.0312 22.876 16.9522 22.6943 16.9484 22.5037C16.9446 22.3132 17.0164 22.1286 17.1485 21.9891L17.1704 21.9675L18.2772 20.8816L18.2974 20.8633C18.4401 20.7338 18.6282 20.6634 18.8225 20.6668C19.0167 20.6702 19.2021 20.7472 19.34 20.8816C19.4101 20.9499 19.4657 21.0311 19.5036 21.1206C19.5415 21.2101 19.5611 21.3061 19.5611 21.403C19.5611 21.4999 19.5415 21.5959 19.5036 21.6854C19.4657 21.7749 19.4101 21.8561 19.34 21.9244ZM19.4261 25.222C19.5671 25.3603 19.7583 25.438 19.9575 25.438C20.1568 25.438 20.3479 25.3603 20.489 25.222L21.5974 24.1361C21.6763 24.0589 21.7368 23.9654 21.7742 23.8624C21.8117 23.7594 21.8253 23.6494 21.8139 23.5406C21.8026 23.4317 21.7667 23.3267 21.7088 23.2333C21.6509 23.1398 21.5725 23.0603 21.4793 23.0004C21.3347 22.9071 21.1619 22.8655 20.9898 22.8827C20.8177 22.8999 20.6569 22.9749 20.5345 23.0949L19.4261 24.1809C19.3563 24.2491 19.3009 24.3302 19.2631 24.4196C19.2254 24.5089 19.2059 24.6047 19.2059 24.7014C19.2059 24.7982 19.2254 24.894 19.2631 24.9833C19.3009 25.0727 19.3563 25.1538 19.4261 25.222ZM14.3901 17.9321L13.2834 19.0181C13.1423 19.1564 12.9512 19.234 12.7519 19.234C12.5527 19.234 12.3616 19.1564 12.2205 19.0181C12.0829 18.8837 12.0039 18.702 12.0001 18.5115C11.9964 18.3209 12.0681 18.1363 12.2003 17.9968L12.2222 17.9752L13.3289 16.8893L13.3492 16.8711C13.4918 16.7419 13.6798 16.6718 13.8737 16.6755C14.0677 16.6792 14.2527 16.7564 14.3901 16.891C14.4599 16.9592 14.5153 17.0403 14.5531 17.1297C14.5908 17.219 14.6103 17.3148 14.6103 17.4115C14.6103 17.5083 14.5908 17.6041 14.5531 17.6934C14.5153 17.7828 14.4599 17.8639 14.3901 17.9321ZM16.8819 19.7774L15.7752 20.8617C15.6342 21 15.443 21.0777 15.2438 21.0777C15.0445 21.0777 14.8534 21 14.7123 20.8617C14.5753 20.7274 14.4966 20.5461 14.4928 20.3559C14.489 20.1657 14.5605 19.9815 14.6921 19.8421L14.714 19.8205L15.8208 18.7346L15.841 18.7147C15.9837 18.5855 16.1716 18.5154 16.3655 18.5191C16.5595 18.5228 16.7445 18.6 16.8819 18.7346C16.952 18.8028 17.0076 18.8841 17.0455 18.9736C17.0834 19.0631 17.103 19.159 17.103 19.256C17.103 19.3529 17.0834 19.4489 17.0455 19.5384C17.0076 19.6279 16.952 19.7091 16.8819 19.7774Z" fill="white"/>
<path d="M11.74 28.38H13.62V36H11.74V28.38ZM6.6 35.7V28.48H8.48V34.2H10.86V35.7H6.6ZM19.9727 30.6H19.4627V29.18H19.9727V28.38H21.8227V33.54H19.9727V32.7H19.4627V31.28H19.9727V30.6ZM19.1627 29.99H14.8227V28.48H19.1627V29.99ZM14.8227 33.09V31.59H15.1527L15.1027 30.36H16.7427L16.7927 31.59H17.1927L17.2427 30.36H18.8827L18.8327 31.59H19.1627V33.09H14.8227ZM15.0227 33.54H16.9027V34.49H21.8227V35.99L15.0227 36V33.54ZM28.4458 28.4H30.2258V36H28.4458V32.9H28.0858V35.9H26.3058V28.4H28.0858V31.4H28.4458V28.4ZM24.8058 28.5V34.2H25.9058V35.7H23.0258V28.5H24.8058ZM36.5742 30.6H36.0642V29.18H36.5742V28.38H38.4242V33.54H36.5742V32.7H36.0642V31.28H36.5742V30.6ZM35.7642 29.99H31.4242V28.48H35.7642V29.99ZM31.4242 33.09V31.59H31.7542L31.7042 30.36H33.3442L33.3942 31.59H33.7942L33.8442 30.36H35.4842L35.4342 31.59H35.7642V33.09H31.4242ZM31.6242 33.54H33.5042V34.49H38.4242V35.99L31.6242 36V33.54Z" fill="white"/>
</svg>
